# xmcd
#
# Track frame offsets:
# 150
# 8013
# 16527
# 27879
# 37633
# 48330
# 57175
# 67818
# 78414
# 87231
# 96937
# 107033
# 115136
# 124271
# 138095
# 146730
# 157068
# 168683
# 177403
# 188331
# 198662
# 207648
# 217416
# 228452
# 242552
# 250992
# 259042
# 264301
# 275257
# 283342
# 291524
# 297758
# 307919
# 315330
# 323228
# 330382
# 335539
#
# Disc length: 4589 seconds
#
# Revision: 0
# Processed by: cddbd v1.5.1PL0 Copyright (c) Steve Scherf et al.
# Submitted via: Audion 3.0.2 (http://www.panic.com/audion/)
#
DISCID=1a11eb25
DTITLE=REGETOM - regeton
DYEAR=1900
DGENRE=
TTITLE0=1
TTITLE1=2
TTITLE2=4
TTITLE3=5
TTITLE4=6
TTITLE5=7
TTITLE6=8
TTITLE7=9
TTITLE8=10
TTITLE9=11
TTITLE10=12
TTITLE11=13
TTITLE12=14
TTITLE13=15
TTITLE14=16
TTITLE15=17
TTITLE16=18
TTITLE17=19
TTITLE18=20
TTITLE19=21
TTITLE20=22
TTITLE21=23
TTITLE22=24
TTITLE23=25
TTITLE24=26
TTITLE25=27
TTITLE26=28
TTITLE27=29
TTITLE28=30
TTITLE29=31
TTITLE30=32
TTITLE31=33
TTITLE32=34
TTITLE33=35
TTITLE34=36
TTITLE35=37
TTITLE36=38
EXTD=
EXTT0=
EXTT1=
EXTT2=
EXTT3=
EXTT4=
EXTT5=
EXTT6=
EXTT7=
EXTT8=
EXTT9=
EXTT10=
EXTT11=
EXTT12=
EXTT13=
EXTT14=
EXTT15=
EXTT16=
EXTT17=
EXTT18=
EXTT19=
EXTT20=
EXTT21=
EXTT22=
EXTT23=
EXTT24=
EXTT25=
EXTT26=
EXTT27=
EXTT28=
EXTT29=
EXTT30=
EXTT31=
EXTT32=
EXTT33=
EXTT34=
EXTT35=
EXTT36=
PLAYORDER=
